<svg xmlns="http://www.w3.org/2000/svg" xmlns:xlink="http://www.w3.org/1999/xlink" version="1.1" id="Layer_1" x="0px" y="0px" width="20px" height="20px" viewBox="0 0 20 20" style="enable-background:new 0 0 20 20;" xml:space="preserve">
          <path d="M6.9,10c0-1.7,1.4-3.1,3.1-3.1s3.1,1.4,3.1,3.1s-1.4,3.1-3.1,3.1S6.9,11.7,6.9,10 M5.3,10c0,2.6,2.1,4.7,4.7,4.7  s4.7-2.1,4.7-4.7S12.6,5.3,10,5.3S5.3,7.4,5.3,10 M13.8,5.1c0,0.6,0.5,1.1,1.1,1.1c0.6,0,1.1-0.5,1.1-1.1S15.5,4,14.9,4  S13.8,4.5,13.8,5.1 M6.3,17.5c-0.9,0-1.4-0.2-1.7-0.3c-0.4-0.2-0.7-0.4-1.1-0.7c-0.3-0.3-0.5-0.6-0.7-1.1c-0.1-0.3-0.3-0.8-0.3-1.7  c0-1-0.1-1.3-0.1-3.7s0-2.7,0.1-3.7c0-0.9,0.2-1.4,0.3-1.7C3,4.2,3.2,3.9,3.5,3.5C3.9,3.2,4.2,3,4.6,2.8c0.3-0.1,0.8-0.3,1.7-0.3  c1,0,1.3-0.1,3.7-0.1c2.5,0,2.7,0,3.7,0.1c0.9,0,1.4,0.2,1.7,0.3c0.4,0.2,0.7,0.4,1.1,0.7c0.3,0.3,0.5,0.6,0.7,1.1  c0.1,0.3,0.3,0.8,0.3,1.7c0,1,0.1,1.3,0.1,3.7c0,2.5,0,2.7-0.1,3.7c0,0.9-0.2,1.4-0.3,1.7c-0.2,0.4-0.4,0.7-0.7,1.1  c-0.3,0.3-0.6,0.5-1.1,0.7c-0.3,0.1-0.8,0.3-1.7,0.3c-1,0-1.3,0.1-3.7,0.1C7.5,17.5,7.3,17.5,6.3,17.5 M6.2,0.9  c-1,0-1.6,0.2-2.2,0.4C3.4,1.5,2.9,1.8,2.4,2.4C1.8,2.9,1.5,3.4,1.3,4C1.1,4.6,0.9,5.2,0.9,6.2c0,1-0.1,1.3-0.1,3.8s0,2.8,0.1,3.8  c0,1,0.2,1.6,0.4,2.2c0.2,0.6,0.5,1.1,1.1,1.6c0.5,0.5,1,0.8,1.6,1.1c0.6,0.2,1.3,0.4,2.2,0.4c1,0,1.3,0.1,3.8,0.1  c2.5,0,2.8,0,3.8-0.1c1,0,1.6-0.2,2.2-0.4c0.6-0.2,1.1-0.5,1.6-1.1c0.5-0.5,0.8-1,1.1-1.6c0.2-0.6,0.4-1.3,0.4-2.2  c0-1,0.1-1.3,0.1-3.8s0-2.8-0.1-3.8c0-1-0.2-1.6-0.4-2.2c-0.2-0.6-0.5-1.1-1.1-1.6c-0.5-0.5-1-0.8-1.6-1.1c-0.6-0.2-1.3-0.4-2.2-0.4  c-1,0-1.3-0.1-3.8-0.1C7.5,0.8,7.2,0.8,6.2,0.9"></path>
        </svg>