<svg xmlns="http://www.w3.org/2000/svg" x="0px" y="0px" viewBox="0 0 18 18" style="enable-background:new 0 0 18 18;" xml:space="preserve">
                <g>
                  <path d="M12,2.5H6c-0.7,0-1.3,0.6-1.3,1.3v10.5c0,0.7,0.6,1.3,1.3,1.3h6c0.7,0,1.3-0.6,1.3-1.3V3.7   C13.2,3.1,12.7,2.5,12,2.5z M12.2,3.7v10.5c0,0.1-0.1,0.2-0.2,0.2H6c-0.1,0-0.2-0.1-0.2-0.2V3.7c0-0.1,0.1-0.2,0.2-0.2h6   C12.1,3.5,12.2,3.6,12.2,3.7z"></path>
                  <path d="M3.5,14c-0.1,0-0.3,0-0.3-0.2L1,6.2C1,6.1,1,6.1,1,6c0,0,0.1-0.1,0.1-0.1l2.7-0.7v-1L0.9,5   C0.6,5.1,0.3,5.3,0.2,5.5C0,5.8,0,6.1,0,6.4l2.2,7.7C2.4,14.6,2.9,15,3.4,15c0.1,0,0.2,0,0.3-0.1l0.2-0.1v-1L3.5,14L3.5,14z"></path>
                  <path d="M17.1,5l-3-0.8v1l2.7,0.7c0.1,0,0.1,0,0.1,0.1c0,0,0,0.1,0,0.2l-2.1,7.7c0,0.1-0.2,0.2-0.3,0.2l-0.4-0.1v1   l0.1,0.1c0.1,0,0.2,0.1,0.4,0.1c0.5,0,1-0.3,1.2-0.9L18,6.4l0-0.1C18.1,5.8,17.7,5.2,17.1,5z"></path>
                </g>
              </svg>