<svg xmlns="http://www.w3.org/2000/svg" x="0px" y="0px" viewBox="0 0 50 50" style="enable-background:new 0 0 50 50;">
          <g>
          	<path d="M45.6,13.5c-0.6-0.8-1.9-1.5-2.9-1.5H13.1l-0.8-3.6C12,6.8,10.3,5.6,8.6,5.6H4.2c-0.5,0-1,0.5-1,1c0,0.5,0.5,1,1,1h4.4   c0.8,0,1.5,0.5,1.8,1.4l5.3,21.4c0.4,1.8,2,2.9,3.8,2.9h20c1.7,0,3.4-1.3,3.8-2.9l3.2-13.5C46.7,15.5,46.4,14.3,45.6,13.5   L45.6,13.5z M44.5,16.1l-3.2,13.4c-0.3,1-1,1.5-1.8,1.5h-20c-0.8,0-1.5-0.5-1.8-1.4L13.6,14h28.9c0.6,0,1.2,0.3,1.5,0.6   c0.6,0.6,0.6,1.2,0.6,1.4L44.5,16.1z"></path>
          	<path d="M20.5,35.7c-2.3,0-4.2,1.9-4.2,4.2c0,2.3,1.9,4.2,4.2,4.2s4.2-1.9,4.2-4.2C24.7,37.6,22.8,35.7,20.5,35.7z M20.5,42   c-1.1,0-2.3-0.9-2.3-2.3c0-1.4,0.9-2.3,2.3-2.3c1.4,0,2.3,0.9,2.3,2.3C22.7,41.1,21.6,42,20.5,42z"></path>
          	<path d="M37.9,35.7c-2.3,0-4.2,1.9-4.2,4.2c0,2.3,1.9,4.2,4.2,4.2c2.3,0,4.2-1.9,4.2-4.2C42.1,37.5,40.3,35.7,37.9,35.7z M37.9,42   c-1.1,0-2.3-0.9-2.3-2.3c0-1.4,0.9-2.3,2.3-2.3c1.4,0,2.3,0.9,2.3,2.3C40.1,41.1,39,42,37.9,42z"></path>
          </g>
        </svg>