<svg xmlns="http://www.w3.org/2000/svg" x="0px" y="0px" viewBox="0 0 19 19">
              <g id="Layer_2_00000097485305687718570450000012444786711219352711_">
                <g id="Layer_1-2_00000170264823178984080880000007986600501065017505_">
                  <path d="M18.9,18.1l-5.2-5.2c2.8-3.2,2.5-8.2-0.8-11s-8.2-2.5-11,0.8s-2.5,8.2,0.8,11c2.9,2.6,7.3,2.6,10.2,0l5.2,5.2
                           c0.1,0.1,0.2,0.2,0.4,0.2c0.3,0,0.6-0.2,0.6-0.5C19,18.3,19,18.2,18.9,18.1z M7.8,14.5c-3.7,0-6.7-3-6.7-6.7c0-3.7,3-6.7,6.7-6.7
                           c3.7,0,6.6,3,6.7,6.7C14.5,11.5,11.5,14.5,7.8,14.5C7.8,14.5,7.8,14.5,7.8,14.5z"></path>
                </g>
              </g>
            </svg>