<svg class="arrow-top" xmlns="http://www.w3.org/2000/svg" x="0px" y="0px" width="20px" height="27px" viewBox="0 0 20 27" xml:space="preserve">
      <g id="Folder_112_00000119106049243841809600000003110066375171286920_">
        <path id="Layer_16_00000109743287270712351390000017229717716179707565_" d="M19.6,11.1c0.6-0.6,0.6-1.6-0.1-2.2   l-8.5-8.5C10.8,0.2,10.4,0,10,0C9.6,0,9.2,0.2,8.9,0.5L0.5,8.9c-0.6,0.6-0.6,1.5,0,2.2c0.3,0.3,0.7,0.5,1.1,0.5   c0.4,0,0.8-0.2,1.1-0.5l5.8-5.9v20.1c0,0.9,0.7,1.5,1.5,1.5c0.9,0,1.5-0.7,1.5-1.5v-20l5.9,5.8c0.3,0.3,0.7,0.5,1.1,0.5   C18.9,11.5,19.3,11.4,19.6,11.1L19.6,11.1L19.6,11.1z"></path>
      </g>
    </svg>