<svg xmlns="http://www.w3.org/2000/svg" x="0px" y="0px" viewBox="0 0 50 50" style="enable-background:new 0 0 50 50;">
                <g>
                	<path d="M38.6,36.4L39,36c3-3.7,4.6-8.1,4.6-12.7c0-11-8.9-19.9-19.9-19.9c-11.2,0-20.4,8.9-20.4,19.9S12.1,43.1,23,43.1   c4.6,0,9-1.6,12.7-4.6l0.4-0.3l8,8c0.4,0.4,0.7,0.6,1,0.6c0.5,0,0.6-0.2,1-0.6l0.1-0.1c0.2-0.2,0.7-0.6,0.7-0.9   c0-0.3-0.1-0.5-0.5-0.8L38.6,36.4z M23.5,40.3c-9.4,0-17-7.6-17-17s7.6-17,17-17c9.4,0,17,7.6,17,17S32.9,40.3,23.5,40.3z"></path>
                </g>
              </svg>