<svg xmlns="http://www.w3.org/2000/svg" x="0px" y="0px" viewBox="0 0 50 50" style="enable-background:new 0 0 50 50;">
          <g>
          	<path d="M34.5,29.9h-19c-5.9,0-10.8,5-10.8,10.8v4.8c0,0.9,0.5,1.3,1.3,1.3s1.3-0.5,1.3-1.3v-4.8c0-4.4,3.8-8.2,8.2-8.2h19   c4.4,0,8.2,3.8,8.2,8.2v4.8c0,0.9,0.5,1.3,1.3,1.3s1.3-0.5,1.3-1.3v-4.8C45.3,34.9,40.4,29.9,34.5,29.9z"></path>
          	<path d="M25,25c5.9,0,10.8-5,10.8-10.8c0-5.9-5-10.8-10.8-10.8s-10.8,5-10.8,10.8C14.2,20,19.1,25,25,25z M25,5.9   c4.4,0,8.2,3.8,8.2,8.2s-3.8,8.2-8.2,8.2s-8.2-3.8-8.2-8.2S20.6,5.9,25,5.9z"></path>
          </g>
        </svg>