<svg class="half-fill-review" xmlns="http://www.w3.org/2000/svg" viewBox="0 0 19.89 19.01">
                      <defs><style>.d{fill:#ddd;}.e{fill:currentcolor;}</style></defs>
                      <g></g>
                      <g>
                        <g>
                          <g>
                            <path class="e" d="M9.18,.56l-1.97,6.09-6.35-.02c-.8-.05-1.19,.99-.53,1.46l5.19,3.75-1.94,5.92c-.29,.89,.48,1.58,1.19,1.07l5.17-3.77V0c-.32,0-.65,.19-.76,.56Z"></path>
                            <path class="d" d="M19.08,6.63l-6.4,.02L10.71,.56C10.59,.19,10.27,0,9.94,0V15.07h0l5.12,3.73c.61,.52,1.55-.09,1.29-.87l-1.99-6.08,5.12-3.7c.71-.51,.4-1.52-.4-1.52Z"></path>
                          </g>
                        </g>
                      </g>
                    </svg>