<svg xmlns="http://www.w3.org/2000/svg" id="Layer_1" viewBox="0 0 17.86 12.5" width="20px" height="20px" style="enable-background:new 0 0 20 20;">
          <g id="Layer_1-2"><path d="M17.48,1.95c-.21-.77-.81-1.37-1.58-1.58-1.39-.37-6.98-.37-6.98-.37,0,0-5.58,0-6.98,.37-.77,.21-1.37,.81-1.58,1.58-.37,1.39-.37,4.3-.37,4.3,0,0,0,2.91,.37,4.3,.21,.77,.81,1.37,1.58,1.58,1.39,.37,6.98,.37,6.98,.37,0,0,5.58,0,6.98-.37,.77-.21,1.37-.81,1.58-1.58,.37-1.39,.37-4.3,.37-4.3,0,0,0-2.91-.37-4.3h0ZM7.14,8.93V3.57l4.64,2.68-4.64,2.68h0Z"></path></g>
        </svg>