<?xml version="1.0" encoding="utf-8"?>
<!-- Generator: Adobe Illustrator 25.4.1, SVG Export Plug-In . SVG Version: 6.00 Build 0)  -->
<svg version="1.1" id="Layer_1" xmlns="http://www.w3.org/2000/svg" xmlns:xlink="http://www.w3.org/1999/xlink" x="0px" y="0px"
	 width="130px" height="68px" viewBox="0 0 130 68" style="enable-background:new 0 0 130 68;" xml:space="preserve">
<style type="text/css">
	.st0{fill:none;stroke:#FFFFFF;stroke-miterlimit:10;}
	.st1{fill-rule:evenodd;clip-rule:evenodd;fill:#061836;}
	.st2{fill-rule:evenodd;clip-rule:evenodd;fill:#FFFFFF;}
	.st3{fill-rule:evenodd;clip-rule:evenodd;fill:#EC2027;}
	.st4{fill:#FFFFFF;}
</style>
<g>
	<rect x="1" y="13.9" class="st0" width="103.8" height="34.6"/>
	<rect x="1" y="13.9" class="st1" width="103.8" height="34.6"/>
	<polygon class="st2" points="7.8,20.5 7.8,41.4 12.9,41.4 12.9,28.4 20.3,41.4 25.3,41.4 25.3,20.5 20.2,20.5 20.2,32.7 13,20.4 	
		"/>
	<polygon class="st2" points="28.3,20.4 28.2,41.4 44.6,41.4 44.6,36.8 33.4,36.8 33.4,32.6 43.2,32.6 43.2,28.1 33.4,28.1 
		33.4,25.1 44.1,25.1 44.1,20.4 	"/>
	<polygon class="st2" points="45.6,20.4 51.5,41.4 56.8,41.4 59.5,27.9 62.4,41.4 67.1,41.4 73.1,20.4 67.7,20.4 64.8,32.8 
		62.3,20.4 56.7,20.4 54.3,32.1 51.6,20.4 	"/>
	<path class="st2" d="M85.1,27.3c0,0,0.7-2.6-3.4-3c-2.8-0.3-3.4,1.7-3,2.4c0.9,1.5,7.4,1.5,10.5,4.1c2.7,2.2,2,7.4-0.8,9.3
		c-3.4,2.3-8.7,1.9-11.1,0.8c-4.7-2.1-4-6.8-4-6.8h5c0,0-0.3,3.2,3.7,3.2c4.1,0,4.1-2.2,3.3-3c-0.9-1-8.7-1.3-10.9-4.5
		c-1.4-2.1-1.6-6.5,2.2-8.8c3.8-2.3,9.4-1.2,11.5,1c2.5,2.6,2.1,5.3,2.1,5.3L85.1,27.3z"/>
	<polygon class="st0" points="94.4,2 129,2 129,36.6 94.4,36.6 	"/>
	<polygon class="st3" points="94.4,2 129,2 129,36.6 94.4,36.6 	"/>
	<polygon class="st2" points="97.9,8.9 106.3,8.9 106.3,30.3 101.3,30.3 101.3,13.8 97.9,13.8 	"/>
	<path class="st2" d="M116.1,30.7c4.4-0.1,7.2-3.2,7.5-6c0.4-3.9-1.6-5.3-2.9-6c1.4-1,2.3-2.1,2.2-4.7c-0.4-3.6-3.4-5.4-6.9-5.4
		c-3.5,0-6.3,2.1-6.8,5.3c-0.4,2.8,1.3,4.3,2.2,4.8c-1.7,0.9-3.2,3.3-2.9,6C108.7,27.1,111.3,30.8,116.1,30.7z"/>
	<path class="st3" d="M118.2,14.8c0,1.2-0.9,2.2-2.1,2.2c-1.2,0-2.2-0.9-2.1-2.2c0-1.3,1.2-2.1,2.1-2.1
		C117.3,12.7,118.2,13.5,118.2,14.8z"/>
	<path class="st3" d="M118.5,23.2c0,1.4-0.9,2.5-2.4,2.5c-1.4,0.1-2.5-1.2-2.5-2.5c0-1.4,1-2.5,2.5-2.5
		C117.5,20.8,118.5,21.9,118.5,23.2z"/>
	<g>
		<g>
			<path class="st4" d="M90.9,56.5h-1.5v2.5h-4.2c-0.1,0-0.1,0-0.1,0.1c-0.1,0.1-0.2,0.1-0.2,0.2c0,0.1,0.1,0.2,0.2,0.4
				c0.1,0.1,0.3,0.3,0.5,0.5c0.2,0.2,0.3,0.3,0.3,0.3c0.2,0,0.3-0.1,0.4-0.1c0.3-0.1,0.6-0.1,0.9-0.1c0.7,0,1.4,0.2,1.9,0.5
				c0.6,0.3,0.8,0.8,0.8,1.4c0,0.7-0.3,1.2-0.9,1.6l-1.2-0.8c0.4-0.1,0.6-0.4,0.6-0.8c0-0.3-0.1-0.4-0.4-0.6
				c-0.2-0.1-0.6-0.2-0.9-0.2c-0.6,0-1.1,0.1-1.5,0.4c-0.4,0.3-0.6,0.6-0.6,1.1c0,0.7,0.5,1.3,1.6,1.7c0.9,0.3,1.5,0.4,1.7,0.3
				l-0.5,1.1c-0.3,0.1-1.1-0.1-2.3-0.6c-1.5-0.6-2.2-1.6-2.2-2.8c0-0.5,0.2-0.9,0.6-1.3c0.1-0.1,0.3-0.3,0.6-0.5
				c-0.1,0-0.4-0.2-0.8-0.7c-0.4-0.5-0.7-1-0.7-1.5c0-0.3,0.1-0.5,0.3-0.7c0.2-0.2,0.4-0.3,0.7-0.3h3.7v-1.2h-5.7v-1.3h8.8V56.5z"/>
			<path class="st4" d="M90.2,55.6c0.1,0,0.2,0,0.2,0.1c0,0.1,0,0.1-0.1,0.2c-0.1,0-0.1,0-0.2-0.1C90,55.7,90.1,55.6,90.2,55.6z"/>
			<path class="st4" d="M89.4,55.3h-1.7c-0.6-0.7-1.1-1.3-1.4-1.6c-1.1-1.1-2.2-1.6-3.1-1.6c-1.3,0-2,0.6-2,1.8c0,0.4,0.1,0.7,0.2,1
				c0,0.1,0.1,0.2,0.2,0.3h1.4v1.3h-1.2v8.4h-1.7v-8.4h-1.4v-1.3H80c-0.1-0.2-0.2-0.3-0.2-0.4c-0.1-0.4-0.2-0.7-0.2-1.1
				c0-1,0.3-1.7,0.9-2.2c0.6-0.5,1.5-0.7,2.6-0.7c0.9,0,2,0.4,3,1.1c0.8,0.6,1.5,1.3,2.3,2.2C88.7,54.5,89,54.9,89.4,55.3z"/>
			<path class="st4" d="M100.4,56.5h-2v2.7h-3.7c-0.3,0-0.6,0.1-0.8,0.3c-0.2,0.2-0.4,0.5-0.4,0.9c0,0.8,0.4,1.3,1.3,1.6
				c0.4,0.1,1,0.2,1.6,0.2c0-0.4,0-0.7,0.1-0.9c0.2-0.4,0.6-0.7,1.2-0.7c0.3,0,0.6,0.1,0.8,0.3c0.2,0.2,0.4,0.5,0.4,0.8
				c0,0.4-0.1,0.8-0.4,1.1c-0.1,0.1-0.2,0.2-0.4,0.3l0.3,0.9c0.1,0.3,0.2,0.5,0.3,0.7c0,0.1,0.1,0.1,0.1,0.2l-1.5,0.3
				c0,0,0-0.1-0.1-0.1c-0.1-0.1-0.2-0.3-0.2-0.6c-0.1-0.3-0.2-0.5-0.2-0.6c0-0.2,0-0.3-0.1-0.4c-0.1,0-0.2,0-0.3,0
				c-1.5,0-2.7-0.3-3.5-0.9c-0.8-0.6-1.2-1.4-1.2-2.4c0-0.7,0.2-1.2,0.7-1.7c0.5-0.4,1-0.7,1.7-0.7h2.6v-1.4h-5.9v-1.3h9.6V56.5z"/>
			<path class="st4" d="M104.8,56.4h-1.2v8.4h-1.7v-8.4h-1.5v-1.3h1.5c-0.2-0.8-0.3-1.3-0.5-1.7c-0.5-1.1-1.3-1.7-2.2-1.7
				c-0.4,0-0.7,0.1-1,0.3c-0.3,0.2-0.4,0.6-0.4,1c0,0.4,0.1,0.9,0.4,1.4c0.3,0.5,0.4,0.8,0.5,0.8h-1.6c-0.2-0.2-0.4-0.5-0.6-1
				c-0.2-0.5-0.3-0.9-0.3-1.3c0-0.7,0.2-1.3,0.7-1.7c0.5-0.4,1.1-0.6,1.9-0.6c1.2,0,2.2,0.4,3,1.2c0.6,0.6,1,1.3,1.3,2.2
				c0.1,0.4,0.2,0.8,0.3,1.2h1.3V56.4z"/>
			<path class="st4" d="M91.7,53.2c0-0.2-0.1-0.4-0.2-0.6c-0.1-0.1-0.3-0.2-0.5-0.2c-0.2,0-0.4,0.1-0.6,0.2s-0.2,0.4-0.2,0.6
				c0,0.4,0.1,0.7,0.4,0.9c0.1,0,0.1,0.1,0.2,0.1c0.2-0.1,0.3-0.2,0.4-0.2C91.5,53.8,91.7,53.5,91.7,53.2z"/>
		</g>
	</g>
</g>
</svg>
